<?xml version="1.0" encoding="UTF-8" standalone="no"?><!-- Generator: Gravit.io --><svg xmlns="http://www.w3.org/2000/svg" xmlns:xlink="http://www.w3.org/1999/xlink" style="isolation:isolate" viewBox="309.916 240 805.098 311.5" width="805.098pt" height="311.5pt"><defs><clipPath id="_clipPath_M8LlBQ2PJYDG7Mtm4tNI025jcAN7AOy1"><rect x="309.916" y="240" width="805.098" height="311.5"/></clipPath></defs><g clip-path="url(#_clipPath_M8LlBQ2PJYDG7Mtm4tNI025jcAN7AOy1)"><polygon points="540,405,530,420,530,390" fill="rgb(185,185,185)"/><polygon points="570,405,560,420,560,390" fill="rgb(185,185,185)"/><polygon points="600,405,590,420,590,390" fill="rgb(185,185,185)"/><g><path d="M 332.953 240 L 457.047 240 C 469.715 240 480 250.285 480 262.953 L 480 507.047 C 480 519.715 469.715 530 457.047 530 L 332.953 530 C 320.285 530 310 519.715 310 507.047 L 310 262.953 C 310 250.285 320.285 240 332.953 240 Z" style="stroke:none;fill:#EBEBEB;stroke-miterlimit:10;"/><rect x="330" y="275" width="55" height="11.538" transform="matrix(1,0,0,1,0,0)" fill="rgb(76,92,104)"/><rect x="330" y="395" width="55" height="11.538" transform="matrix(1,0,0,1,0,0)" fill="rgb(76,92,104)"/><rect x="330" y="355" width="55" height="11.538" transform="matrix(1,0,0,1,0,0)" fill="rgb(76,92,104)"/><rect x="330" y="335" width="110" height="11.538" transform="matrix(1,0,0,1,0,0)" fill="rgb(219,39,99)"/><rect x="330" y="315" width="110" height="11.538" transform="matrix(1,0,0,1,0,0)" fill="rgb(76,92,104)"/><rect x="330" y="375" width="110" height="11.538" transform="matrix(1,0,0,1,0,0)" fill="rgb(76,92,104)"/><rect x="330" y="295" width="82.5" height="11.538" transform="matrix(1,0,0,1,0,0)" fill="rgb(253,231,76)"/><path d=" M 314.987 523.988 Q 309.317 517.65 309.987 510 L 479.987 510 Q 480.232 517.11 475.987 523.322 Q 471.741 529.533 454.987 529.982 L 334.987 529.982 Q 320.657 530.326 314.987 523.988 Z " fill="rgb(93,93,93)"/><g clip-path="url(#_clipPath_AGL8L1L724JPbpjaRmL3tHLHtnPTBbwW)"><text transform="matrix(1,0,0,1,406.037,524.964)" style="font-family:'Open Sans';font-weight:400;font-size:14px;font-style:normal;fill:#ffffff;stroke:none;">Dockerfile</text></g><defs><clipPath id="_clipPath_AGL8L1L724JPbpjaRmL3tHLHtnPTBbwW"><rect x="0" y="0" width="80" height="20" transform="matrix(1,0,0,1,400,510)"/></clipPath></defs></g><g><path d="M 967.953 240 L 1092.047 240 C 1104.715 240 1115 250.285 1115 262.953 L 1115 507.047 C 1115 519.715 1104.715 530 1092.047 530 L 967.953 530 C 955.285 530 945 519.715 945 507.047 L 945 262.953 C 945 250.285 955.285 240 967.953 240 Z" style="stroke:none;fill:#EBEBEB;stroke-miterlimit:10;"/><rect x="965" y="275" width="55" height="11.538" transform="matrix(1,0,0,1,0,0)" fill="rgb(76,92,104)"/><rect x="965" y="395" width="55" height="11.538" transform="matrix(1,0,0,1,0,0)" fill="rgb(76,92,104)"/><rect x="965" y="355" width="55" height="11.538" transform="matrix(1,0,0,1,0,0)" fill="rgb(76,92,104)"/><rect x="965" y="335" width="110" height="11.538" transform="matrix(1,0,0,1,0,0)" fill="rgb(0,150,136)"/><rect x="965" y="315" width="110" height="11.538" transform="matrix(1,0,0,1,0,0)" fill="rgb(76,92,104)"/><rect x="965" y="375" width="110" height="11.538" transform="matrix(1,0,0,1,0,0)" fill="rgb(76,92,104)"/><rect x="965" y="295" width="82.5" height="11.538" transform="matrix(1,0,0,1,0,0)" fill="rgb(0,150,136)"/><path d=" M 950 524.006 Q 944.33 517.66 945 510 L 1115 510 Q 1115.245 517.12 1111 523.339 Q 1106.755 529.559 1090 530.009 L 970 530.009 Q 955.67 530.353 950 524.006 Z " fill="rgb(0,150,136)"/><g clip-path="url(#_clipPath_MOPj1OgXhbQZVK9Q6jODmJSiMTo4TbxR)"><text transform="matrix(1,0,0,1,1041.037,524.964)" style="font-family:'Open Sans';font-weight:400;font-size:14px;font-style:normal;fill:#ffffff;stroke:none;">Dockerfile</text></g><defs><clipPath id="_clipPath_MOPj1OgXhbQZVK9Q6jODmJSiMTo4TbxR"><rect x="0" y="0" width="80" height="20" transform="matrix(1,0,0,1,1035,510)"/></clipPath></defs></g><g><mask id="_mask_3Ydqdfg8lvpUV0zMQGj107SjU5Bm6KHH"><path d=" M 640 425.502 Q 640 384.385 714.242 275 Q 790 384.385 790 425.502 C 790 465.997 757.401 498.99 716.87 499.977 C 716.249 499.992 715.625 500 715 500 C 673.606 500 640 466.618 640 425.502 Z " fill="white" stroke="none"/></mask><path d=" M 640 425.502 Q 640 384.385 714.242 275 Q 790 384.385 790 425.502 C 790 465.997 757.401 498.99 716.87 499.977 C 716.249 499.992 715.625 500 715 500 C 673.606 500 640 466.618 640 425.502 Z " fill="rgb(30,200,190)"/><path d=" M 640 425.502 Q 640 384.385 714.242 275 Q 790 384.385 790 425.502 C 790 465.997 757.401 498.99 716.87 499.977 C 716.249 499.992 715.625 500 715 500 C 673.606 500 640 466.618 640 425.502 Z " fill="rgb(30,200,190)" mask="url(#_mask_3Ydqdfg8lvpUV0zMQGj107SjU5Bm6KHH)" vector-effect="non-scaling-stroke" stroke-width="4" stroke="rgb(255,255,255)" stroke-linejoin="miter" stroke-linecap="square" stroke-miterlimit="3"/><rect x="670" y="389.625" width="15" height="7.875" transform="matrix(1,0,0,1,0,0)" fill="rgb(76,92,104)"/><rect x="670" y="450" width="15" height="7.875" transform="matrix(1,0,0,1,0,0)" fill="rgb(76,92,104)"/><rect x="670" y="434.625" width="30" height="7.875" transform="matrix(1,0,0,1,0,0)" fill="rgb(219,39,99)"/><rect x="670" y="420" width="30" height="7.875" transform="matrix(1,0,0,1,0,0)" fill="rgb(76,92,104)"/><rect x="670" y="404.625" width="22.5" height="7.875" transform="matrix(1,0,0,1,0,0)" fill="rgb(253,231,76)"/><rect x="733.75" y="390" width="15" height="7.875" transform="matrix(1,0,0,1,0,0)" fill="rgb(76,92,104)"/><rect x="733.75" y="450.375" width="15" height="7.875" transform="matrix(1,0,0,1,0,0)" fill="rgb(76,92,104)"/><rect x="733.75" y="435" width="30" height="7.875" transform="matrix(1,0,0,1,0,0)" fill="rgb(0,150,136)" style="mix-blend-mode:multiply;"/><rect x="733.75" y="420.375" width="30" height="7.875" transform="matrix(1,0,0,1,0,0)" fill="rgb(76,92,104)"/><rect x="733.75" y="405" width="22.5" height="7.875" transform="matrix(1,0,0,1,0,0)" fill="rgb(0,150,136)" style="mix-blend-mode:multiply;"/><line x1="715" y1="330" x2="715" y2="472.5" vector-effect="non-scaling-stroke" stroke-width="3" stroke="rgb(255,255,255)" stroke-linejoin="miter" stroke-linecap="square" stroke-miterlimit="3"/></g><polygon points="840,405,830,420,830,390" fill="rgb(0,150,136)"/><polygon points="870,405,860,420,860,390" fill="rgb(0,150,136)"/><polygon points="900,405,890,420,890,390" fill="rgb(0,150,136)"/></g></svg>