<?xml version="1.0" encoding="UTF-8" standalone="no"?><!-- Generator: Gravit.io --><svg xmlns="http://www.w3.org/2000/svg" xmlns:xlink="http://www.w3.org/1999/xlink" style="isolation:isolate" viewBox="600 240 200 300" width="200pt" height="300pt"><defs><clipPath id="_clipPath_vxD60C1bEPgVOpRnH5fYb6d2fAArfA1w"><rect x="600" y="240" width="200" height="300"/></clipPath></defs><g clip-path="url(#_clipPath_vxD60C1bEPgVOpRnH5fYb6d2fAArfA1w)"><mask id="_mask_Y3DP1mxalCo5hXGHYhXSiT0mgTjS3bIq"><path d=" M 600 440.669 Q 600 385.847 698.99 240 Q 800 385.847 800 440.669 C 800 494.663 756.535 538.653 702.493 539.97 C 701.665 539.99 700.834 540 700 540 C 644.808 540 600 495.491 600 440.669 Z " fill="white" stroke="none"/></mask><path d=" M 600 440.669 Q 600 385.847 698.99 240 Q 800 385.847 800 440.669 C 800 494.663 756.535 538.653 702.493 539.97 C 701.665 539.99 700.834 540 700 540 C 644.808 540 600 495.491 600 440.669 Z " fill="rgb(30,200,190)"/><path d=" M 600 440.669 Q 600 385.847 698.99 240 Q 800 385.847 800 440.669 C 800 494.663 756.535 538.653 702.493 539.97 C 701.665 539.99 700.834 540 700 540 C 644.808 540 600 495.491 600 440.669 Z " fill="rgb(30,200,190)" mask="url(#_mask_Y3DP1mxalCo5hXGHYhXSiT0mgTjS3bIq)" vector-effect="non-scaling-stroke" stroke-width="4" stroke="rgb(255,255,255)" stroke-linejoin="miter" stroke-linecap="square" stroke-miterlimit="3"/><rect x="640" y="389.5" width="20" height="10.5" transform="matrix(1,0,0,1,0,0)" fill="rgb(76,92,104)"/><rect x="640" y="470" width="20" height="10.5" transform="matrix(1,0,0,1,0,0)" fill="rgb(76,92,104)"/><rect x="640" y="449.5" width="40" height="10.5" transform="matrix(1,0,0,1,0,0)" fill="rgb(255,89,100)"/><rect x="640" y="430" width="40" height="10.5" transform="matrix(1,0,0,1,0,0)" fill="rgb(76,92,104)"/><rect x="640" y="409.5" width="30" height="10.5" transform="matrix(1,0,0,1,0,0)" fill="rgb(246,249,48)"/><rect x="725" y="390" width="20" height="10.5" transform="matrix(1,0,0,1,0,0)" fill="rgb(76,92,104)"/><rect x="725" y="470.5" width="20" height="10.5" transform="matrix(1,0,0,1,0,0)" fill="rgb(76,92,104)"/><rect x="725" y="450" width="40" height="10.5" transform="matrix(1,0,0,1,0,0)" fill="rgb(176,219,67)" style="mix-blend-mode:multiply;"/><rect x="725" y="430.5" width="40" height="10.5" transform="matrix(1,0,0,1,0,0)" fill="rgb(76,92,104)"/><rect x="725" y="410" width="30" height="10.5" transform="matrix(1,0,0,1,0,0)" fill="rgb(176,219,67)" style="mix-blend-mode:multiply;"/><line x1="700" y1="310" x2="700" y2="500" vector-effect="non-scaling-stroke" stroke-width="3" stroke="rgb(255,255,255)" stroke-linejoin="miter" stroke-linecap="square" stroke-miterlimit="3"/></g></svg>