<?xml version="1.0" encoding="UTF-8" standalone="no"?><!-- Generator: Gravit.io --><svg xmlns="http://www.w3.org/2000/svg" xmlns:xlink="http://www.w3.org/1999/xlink" style="isolation:isolate" viewBox="310 232.6 810.042 297.426" width="810.042pt" height="297.426pt"><g><path d=" M 533.855 357.815 L 528.269 362.588 L 522.684 367.362 C 521.203 368.628 520 368.074 520 366.125 L 520 355.521 L 520 344.917 C 520 342.968 521.203 342.413 522.684 343.68 L 528.269 348.453 L 533.855 353.227 C 535.336 354.493 535.336 356.549 533.855 357.815 Z " fill="rgb(185,185,185)"/><path d=" M 563.853 357.815 L 558.268 362.588 L 552.684 367.362 C 551.203 368.628 550 368.074 550 366.125 L 550 355.521 L 550 344.916 C 550 342.968 551.203 342.413 552.684 343.68 L 558.268 348.453 L 563.853 353.227 C 565.334 354.493 565.334 356.549 563.853 357.815 Z " fill="rgb(185,185,185)"/><path d=" M 593.853 357.815 L 588.268 362.588 L 582.684 367.362 C 581.203 368.628 580 368.074 580 366.125 L 580 355.521 L 580 344.916 C 580 342.968 581.203 342.413 582.684 343.68 L 588.268 348.453 L 593.853 353.227 C 595.334 354.493 595.334 356.549 593.853 357.815 Z " fill="rgb(185,185,185)"/></g><g><path d="M 332.953 240 L 457.047 240 C 469.715 240 480 250.285 480 262.953 L 480 507.047 C 480 519.715 469.715 530 457.047 530 L 332.953 530 C 320.285 530 310 519.715 310 507.047 L 310 262.953 C 310 250.285 320.285 240 332.953 240 Z" style="stroke:none;fill:#EBEBEB;stroke-miterlimit:10;"/><g opacity="0.05"><path d=" M 480 380 L 480 504.378 C 480 518.519 470.355 530 458.475 530 L 373.883 530 L 480 380 L 480 380 Z " fill="rgb(0,0,0)"/></g><path d=" M 315.068 523.988 Q 309.401 517.65 310.071 510 L 479.987 510 Q 480.232 517.11 475.989 523.322 Q 471.745 529.533 454.999 529.982 L 335.058 529.982 Q 320.736 530.326 315.068 523.988 Z " fill="rgb(93,93,93)"/><path d="M 335 275 L 380 275 C 382.76 275 385 277.241 385 280.001 L 385 281.539 C 385 284.299 382.76 286.54 380 286.54 L 335 286.54 C 332.24 286.54 330 284.299 330 281.539 L 330 280.001 C 330 277.241 332.24 275 335 275 Z" style="stroke:none;fill:#4C5C68;stroke-miterlimit:10;"/><path d="M 335 395 L 380 395 C 382.76 395 385 397.241 385 400.001 L 385 401.539 C 385 404.299 382.76 406.54 380 406.54 L 335 406.54 C 332.24 406.54 330 404.299 330 401.539 L 330 400.001 C 330 397.241 332.24 395 335 395 Z" style="stroke:none;fill:#4C5C68;stroke-miterlimit:10;"/><path d="M 335 355 L 380 355 C 382.76 355 385 357.241 385 360.001 L 385 361.539 C 385 364.299 382.76 366.54 380 366.54 L 335 366.54 C 332.24 366.54 330 364.299 330 361.539 L 330 360.001 C 330 357.241 332.24 355 335 355 Z" style="stroke:none;fill:#4C5C68;stroke-miterlimit:10;"/><path d="M 335 335 L 435 335 C 437.76 335 440 337.241 440 340.001 L 440 341.539 C 440 344.299 437.76 346.54 435 346.54 L 335 346.54 C 332.24 346.54 330 344.299 330 341.539 L 330 340.001 C 330 337.241 332.24 335 335 335 Z" style="stroke:none;fill:#DB2763;stroke-miterlimit:10;"/><path d="M 335 315 L 435 315 C 437.76 315 440 317.241 440 320.001 L 440 321.539 C 440 324.299 437.76 326.54 435 326.54 L 335 326.54 C 332.24 326.54 330 324.299 330 321.539 L 330 320.001 C 330 317.241 332.24 315 335 315 Z" style="stroke:none;fill:#4C5C68;stroke-miterlimit:10;"/><path d="M 335 375 L 435 375 C 437.76 375 440 377.241 440 380.001 L 440 381.539 C 440 384.299 437.76 386.54 435 386.54 L 335 386.54 C 332.24 386.54 330 384.299 330 381.539 L 330 380.001 C 330 377.241 332.24 375 335 375 Z" style="stroke:none;fill:#4C5C68;stroke-miterlimit:10;"/><path d="M 335 295 L 407.5 295 C 410.26 295 412.5 297.241 412.5 300.001 L 412.5 301.539 C 412.5 304.299 410.26 306.54 407.5 306.54 L 335 306.54 C 332.24 306.54 330 304.299 330 301.539 L 330 300.001 C 330 297.241 332.24 295 335 295 Z" style="stroke:none;fill:#FDE74C;stroke-miterlimit:10;"/><g clip-path="url(#_clipPath_67oxrhTYFkSxFfb2pIzlUF3bgczc63OE)"><text transform="matrix(1,0,0,1,407.004,524.655)" style="font-family:'Open Sans';font-weight:600;font-size:12px;font-style:normal;fill:#ffffff;stroke:none;">Dockerfile</text></g><defs><clipPath id="_clipPath_67oxrhTYFkSxFfb2pIzlUF3bgczc63OE"><rect x="0" y="0" width="85" height="20" transform="matrix(1,0,0,1,395,510)"/></clipPath></defs></g><g><path d="M 972.953 240 L 1097.047 240 C 1109.715 240 1120 250.285 1120 262.953 L 1120 507.047 C 1120 519.715 1109.715 530 1097.047 530 L 972.953 530 C 960.285 530 950 519.715 950 507.047 L 950 262.953 C 950 250.285 960.285 240 972.953 240 Z" style="stroke:none;fill:#EBEBEB;stroke-miterlimit:10;"/><path d="M 975 275 L 1020 275 C 1022.76 275 1025 277.241 1025 280.001 L 1025 281.539 C 1025 284.299 1022.76 286.54 1020 286.54 L 975 286.54 C 972.24 286.54 970 284.299 970 281.539 L 970 280.001 C 970 277.241 972.24 275 975 275 Z" style="stroke:none;fill:#4C5C68;stroke-miterlimit:10;"/><g opacity="0.05"><path d=" M 1120 380 L 1120 504.378 C 1120 518.519 1110.4 530 1098.576 530 L 1014.383 530 L 1120 380 L 1120 380 Z " fill="rgb(0,0,0)"/></g><path d="M 975 395 L 1020 395 C 1022.76 395 1025 397.241 1025 400.001 L 1025 401.539 C 1025 404.299 1022.76 406.54 1020 406.54 L 975 406.54 C 972.24 406.54 970 404.299 970 401.539 L 970 400.001 C 970 397.241 972.24 395 975 395 Z" style="stroke:none;fill:#4C5C68;stroke-miterlimit:10;"/><path d="M 975 355 L 1020 355 C 1022.76 355 1025 357.241 1025 360.001 L 1025 361.539 C 1025 364.299 1022.76 366.54 1020 366.54 L 975 366.54 C 972.24 366.54 970 364.299 970 361.539 L 970 360.001 C 970 357.241 972.24 355 975 355 Z" style="stroke:none;fill:#4C5C68;stroke-miterlimit:10;"/><path d="M 975 335 L 1075 335 C 1077.76 335 1080 337.241 1080 340.001 L 1080 341.539 C 1080 344.299 1077.76 346.54 1075 346.54 L 975 346.54 C 972.24 346.54 970 344.299 970 341.539 L 970 340.001 C 970 337.241 972.24 335 975 335 Z" style="stroke:none;fill:#009688;stroke-miterlimit:10;"/><path d="M 975 315 L 1075 315 C 1077.76 315 1080 317.241 1080 320.001 L 1080 321.539 C 1080 324.299 1077.76 326.54 1075 326.54 L 975 326.54 C 972.24 326.54 970 324.299 970 321.539 L 970 320.001 C 970 317.241 972.24 315 975 315 Z" style="stroke:none;fill:#4C5C68;stroke-miterlimit:10;"/><path d="M 975 375 L 1075 375 C 1077.76 375 1080 377.241 1080 380.001 L 1080 381.539 C 1080 384.299 1077.76 386.54 1075 386.54 L 975 386.54 C 972.24 386.54 970 384.299 970 381.539 L 970 380.001 C 970 377.241 972.24 375 975 375 Z" style="stroke:none;fill:#4C5C68;stroke-miterlimit:10;"/><path d="M 975 295 L 1047.5 295 C 1050.26 295 1052.5 297.241 1052.5 300.001 L 1052.5 301.539 C 1052.5 304.299 1050.26 306.54 1047.5 306.54 L 975 306.54 C 972.24 306.54 970 304.299 970 301.539 L 970 300.001 C 970 297.241 972.24 295 975 295 Z" style="stroke:none;fill:#009688;stroke-miterlimit:10;"/><path d=" M 955.068 524.006 Q 949.401 517.66 950.071 510 L 1119.987 510 Q 1120.232 517.12 1115.989 523.339 Q 1111.745 529.559 1094.999 530.009 L 975.058 530.009 Q 960.736 530.353 955.068 524.006 Z " fill="rgb(0,150,136)"/><g clip-path="url(#_clipPath_fLP6ZAlC0zaFWnLAByOivZQu8L7n30Ok)"><text transform="matrix(1,0,0,1,1047.046,524.682)" style="font-family:'Open Sans';font-weight:600;font-size:12px;font-style:normal;fill:#ffffff;stroke:none;">Dockerfile</text></g><defs><clipPath id="_clipPath_fLP6ZAlC0zaFWnLAByOivZQu8L7n30Ok"><rect x="0" y="0" width="85" height="20" transform="matrix(1,0,0,1,1035.042,510.026)"/></clipPath></defs></g><g><path d=" M 834 355.515 C 833.77 350.251 830.021 345.235 830 343.311 C 829.98 341.387 850 350.206 850 355.515 C 850 360.823 829.921 369.864 830 367.718 C 830.08 365.572 834.213 360.376 834 355.515 Z " fill="rgb(0,150,136)"/><path d=" M 864 355.473 C 863.77 350.21 860.021 345.194 860 343.27 C 859.98 341.346 880 350.164 880 355.473 C 880 360.782 859.921 369.823 860 367.677 C 860.08 365.531 864.213 360.334 864 355.473 Z " fill="rgb(0,150,136)"/><path d=" M 894 355.499 C 893.77 350.236 890.021 345.22 890 343.296 C 889.98 341.372 910 350.191 910 355.499 C 910 360.808 889.921 369.849 890 367.703 C 890.08 365.557 894.213 360.361 894 355.499 Z " fill="rgb(0,150,136)"/></g><g><g><mask id="_mask_Yad3HWkmsiQutrSUskbaiGTP0JFHnpVS"><path d=" M 754.803 440.587 L 715.558 440.587 L 676.314 440.587 C 670.795 440.587 664.074 436.707 661.314 431.927 L 641.692 397.94 L 622.07 363.954 C 619.31 359.174 619.31 351.413 622.07 346.633 L 641.692 312.647 L 661.314 278.66 C 664.074 273.881 670.795 270 676.314 270 L 715.558 270 L 754.803 270 C 760.322 270 767.043 273.881 769.803 278.66 L 789.425 312.647 L 809.047 346.633 C 811.806 351.413 811.806 359.174 809.047 363.954 L 789.425 397.94 L 769.803 431.927 C 767.043 436.707 760.322 440.587 754.803 440.587 Z " fill="white" stroke="none"/></mask><path d=" M 754.803 440.587 L 715.558 440.587 L 676.314 440.587 C 670.795 440.587 664.074 436.707 661.314 431.927 L 641.692 397.94 L 622.07 363.954 C 619.31 359.174 619.31 351.413 622.07 346.633 L 641.692 312.647 L 661.314 278.66 C 664.074 273.881 670.795 270 676.314 270 L 715.558 270 L 754.803 270 C 760.322 270 767.043 273.881 769.803 278.66 L 789.425 312.647 L 809.047 346.633 C 811.806 351.413 811.806 359.174 809.047 363.954 L 789.425 397.94 L 769.803 431.927 C 767.043 436.707 760.322 440.587 754.803 440.587 Z " fill="rgb(36,150,237)"/><path d=" M 754.803 440.587 L 715.558 440.587 L 676.314 440.587 C 670.795 440.587 664.074 436.707 661.314 431.927 L 641.692 397.94 L 622.07 363.954 C 619.31 359.174 619.31 351.413 622.07 346.633 L 641.692 312.647 L 661.314 278.66 C 664.074 273.881 670.795 270 676.314 270 L 715.558 270 L 754.803 270 C 760.322 270 767.043 273.881 769.803 278.66 L 789.425 312.647 L 809.047 346.633 C 811.806 351.413 811.806 359.174 809.047 363.954 L 789.425 397.94 L 769.803 431.927 C 767.043 436.707 760.322 440.587 754.803 440.587 Z " fill="rgb(36,150,237)" mask="url(#_mask_Yad3HWkmsiQutrSUskbaiGTP0JFHnpVS)" vector-effect="non-scaling-stroke" stroke-width="4" stroke="rgb(255,255,255)" stroke-linejoin="miter" stroke-linecap="round" stroke-miterlimit="5"/><path d=" M 763.746 272.798 C 766.294 274.329 768.494 276.393 769.803 278.66 L 789.425 312.647 L 809.047 346.633 C 811.806 351.413 811.806 359.174 809.047 363.954 L 789.425 397.94 L 769.803 431.927 C 767.043 436.707 760.322 440.587 754.803 440.587 L 715.558 440.587 L 676.314 440.587 C 673.325 440.587 669.984 439.449 667.114 437.641 L 763.746 272.798 L 763.746 272.798 Z " fill="rgb(0,0,0)" fill-opacity="0.1"/><g><g><g><path d="M 669.07 330 L 680.07 330 C 681.174 330 682.07 330.896 682.07 331.999 L 682.07 335.871 C 682.07 336.974 681.174 337.87 680.07 337.87 L 669.07 337.87 C 667.966 337.87 667.07 336.974 667.07 335.871 L 667.07 331.999 C 667.07 330.896 667.966 330 669.07 330 Z" style="stroke:none;fill:#4C5C68;stroke-miterlimit:10;"/></g><path d="M 669.07 390.37 L 680.07 390.37 C 681.174 390.37 682.07 391.267 682.07 392.371 L 682.07 396.249 C 682.07 397.353 681.174 398.25 680.07 398.25 L 669.07 398.25 C 667.966 398.25 667.07 397.353 667.07 396.249 L 667.07 392.371 C 667.07 391.267 667.966 390.37 669.07 390.37 Z" style="stroke:none;fill:#4C5C68;stroke-miterlimit:10;"/><path d="M 669.07 375 L 695.07 375 C 696.174 375 697.07 375.896 697.07 376.999 L 697.07 380.871 C 697.07 381.974 696.174 382.87 695.07 382.87 L 669.07 382.87 C 667.966 382.87 667.07 381.974 667.07 380.871 L 667.07 376.999 C 667.07 375.896 667.966 375 669.07 375 Z" style="stroke:none;fill:#DB2763;stroke-miterlimit:10;"/><path d="M 669.07 360.37 L 695.07 360.37 C 696.174 360.37 697.07 361.267 697.07 362.371 L 697.07 366.249 C 697.07 367.353 696.174 368.25 695.07 368.25 L 669.07 368.25 C 667.966 368.25 667.07 367.353 667.07 366.249 L 667.07 362.371 C 667.07 361.267 667.966 360.37 669.07 360.37 Z" style="stroke:none;fill:#4C5C68;stroke-miterlimit:10;"/><path d="M 669.07 345 L 687.57 345 C 688.674 345 689.57 345.896 689.57 346.999 L 689.57 350.871 C 689.57 351.974 688.674 352.87 687.57 352.87 L 669.07 352.87 C 667.966 352.87 667.07 351.974 667.07 350.871 L 667.07 346.999 C 667.07 345.896 667.966 345 669.07 345 Z" style="stroke:none;fill:#FDE74C;stroke-miterlimit:10;"/></g><g opacity="0.5"><line x1="717.07" y1="320" x2="717.07" y2="410" vector-effect="non-scaling-stroke" stroke-width="3" stroke="rgb(255,255,255)" stroke-linejoin="miter" stroke-linecap="square" stroke-miterlimit="1"/></g><g><path d="M 737.86 330.38 L 748.86 330.38 C 749.964 330.38 750.86 331.276 750.86 332.379 L 750.86 336.251 C 750.86 337.354 749.964 338.25 748.86 338.25 L 737.86 338.25 C 736.756 338.25 735.86 337.354 735.86 336.251 L 735.86 332.379 C 735.86 331.276 736.756 330.38 737.86 330.38 Z" style="stroke:none;fill:#4C5C68;stroke-miterlimit:10;"/><path d="M 737.86 390.75 L 748.86 390.75 C 749.964 390.75 750.86 391.646 750.86 392.749 L 750.86 396.621 C 750.86 397.724 749.964 398.62 748.86 398.62 L 737.86 398.62 C 736.756 398.62 735.86 397.724 735.86 396.621 L 735.86 392.749 C 735.86 391.646 736.756 390.75 737.86 390.75 Z" style="stroke:none;fill:#4C5C68;stroke-miterlimit:10;"/><path d="M 737.86 375.38 L 763.86 375.38 C 764.964 375.38 765.86 376.276 765.86 377.379 L 765.86 381.251 C 765.86 382.354 764.964 383.25 763.86 383.25 L 737.86 383.25 C 736.756 383.25 735.86 382.354 735.86 381.251 L 735.86 377.379 C 735.86 376.276 736.756 375.38 737.86 375.38 Z" style="stroke:none;fill:#009688;stroke-miterlimit:10;mix-blend-mode:multiply;"/><path d="M 737.86 360.75 L 763.86 360.75 C 764.964 360.75 765.86 361.646 765.86 362.749 L 765.86 366.621 C 765.86 367.724 764.964 368.62 763.86 368.62 L 737.86 368.62 C 736.756 368.62 735.86 367.724 735.86 366.621 L 735.86 362.749 C 735.86 361.646 736.756 360.75 737.86 360.75 Z" style="stroke:none;fill:#4C5C68;stroke-miterlimit:10;"/><path d="M 737.86 345.38 L 756.36 345.38 C 757.464 345.38 758.36 346.276 758.36 347.379 L 758.36 351.251 C 758.36 352.354 757.464 353.25 756.36 353.25 L 737.86 353.25 C 736.756 353.25 735.86 352.354 735.86 351.251 L 735.86 347.379 C 735.86 346.276 736.756 345.38 737.86 345.38 Z" style="stroke:none;fill:#009688;stroke-miterlimit:10;mix-blend-mode:multiply;"/></g></g><g style="mix-blend-mode:normal;" opacity="0.8"><g clip-path="url(#_clipPath_yNQ0LzRQUyRfHxuoDrYuCuVJYx4TfuxP)"><text transform="matrix(1,0,0,1,695.601,299.311)" style="font-family:'Open Sans';font-weight:300;font-size:24px;font-style:normal;font-variant-ligatures:none;letter-spacing:6;fill:#ffffff;stroke:none;">WL</text></g><defs><clipPath id="_clipPath_yNQ0LzRQUyRfHxuoDrYuCuVJYx4TfuxP"><rect x="0" y="0" width="70" height="40" transform="matrix(1,0,0,1,681.464,270)"/></clipPath></defs></g></g></g></svg>