<?xml version="1.0" encoding="UTF-8" standalone="no"?><!-- Generator: Gravit.io --><svg xmlns="http://www.w3.org/2000/svg" xmlns:xlink="http://www.w3.org/1999/xlink" style="isolation:isolate" viewBox="620 232.6 191.117 207.987" width="191.117pt" height="207.987pt"><g><g><mask id="_mask_auTfx85DJbGoev3csWr1qMHiwUqWbkTw"><path d=" M 754.803 440.587 L 715.558 440.587 L 676.314 440.587 C 670.795 440.587 664.074 436.707 661.314 431.927 L 641.692 397.94 L 622.07 363.954 C 619.31 359.174 619.31 351.413 622.07 346.633 L 641.692 312.647 L 661.314 278.66 C 664.074 273.881 670.795 270 676.314 270 L 715.558 270 L 754.803 270 C 760.322 270 767.043 273.881 769.803 278.66 L 789.425 312.647 L 809.047 346.633 C 811.806 351.413 811.806 359.174 809.047 363.954 L 789.425 397.94 L 769.803 431.927 C 767.043 436.707 760.322 440.587 754.803 440.587 Z " fill="white" stroke="none"/></mask><path d=" M 754.803 440.587 L 715.558 440.587 L 676.314 440.587 C 670.795 440.587 664.074 436.707 661.314 431.927 L 641.692 397.94 L 622.07 363.954 C 619.31 359.174 619.31 351.413 622.07 346.633 L 641.692 312.647 L 661.314 278.66 C 664.074 273.881 670.795 270 676.314 270 L 715.558 270 L 754.803 270 C 760.322 270 767.043 273.881 769.803 278.66 L 789.425 312.647 L 809.047 346.633 C 811.806 351.413 811.806 359.174 809.047 363.954 L 789.425 397.94 L 769.803 431.927 C 767.043 436.707 760.322 440.587 754.803 440.587 Z " fill="rgb(36,150,237)"/><path d=" M 754.803 440.587 L 715.558 440.587 L 676.314 440.587 C 670.795 440.587 664.074 436.707 661.314 431.927 L 641.692 397.94 L 622.07 363.954 C 619.31 359.174 619.31 351.413 622.07 346.633 L 641.692 312.647 L 661.314 278.66 C 664.074 273.881 670.795 270 676.314 270 L 715.558 270 L 754.803 270 C 760.322 270 767.043 273.881 769.803 278.66 L 789.425 312.647 L 809.047 346.633 C 811.806 351.413 811.806 359.174 809.047 363.954 L 789.425 397.94 L 769.803 431.927 C 767.043 436.707 760.322 440.587 754.803 440.587 Z " fill="rgb(36,150,237)" mask="url(#_mask_auTfx85DJbGoev3csWr1qMHiwUqWbkTw)" vector-effect="non-scaling-stroke" stroke-width="4" stroke="rgb(255,255,255)" stroke-linejoin="miter" stroke-linecap="round" stroke-miterlimit="5"/><path d=" M 763.746 272.798 C 766.294 274.329 768.494 276.393 769.803 278.66 L 789.425 312.647 L 809.047 346.633 C 811.806 351.413 811.806 359.174 809.047 363.954 L 789.425 397.94 L 769.803 431.927 C 767.043 436.707 760.322 440.587 754.803 440.587 L 715.558 440.587 L 676.314 440.587 C 673.325 440.587 669.984 439.449 667.114 437.641 L 763.746 272.798 L 763.746 272.798 Z " fill="rgb(0,0,0)" fill-opacity="0.1"/><g><g><g><path d="M 669.07 330 L 680.07 330 C 681.174 330 682.07 330.896 682.07 331.999 L 682.07 335.871 C 682.07 336.974 681.174 337.87 680.07 337.87 L 669.07 337.87 C 667.966 337.87 667.07 336.974 667.07 335.871 L 667.07 331.999 C 667.07 330.896 667.966 330 669.07 330 Z" style="stroke:none;fill:#4C5C68;stroke-miterlimit:10;"/></g><path d="M 669.07 390.37 L 680.07 390.37 C 681.174 390.37 682.07 391.267 682.07 392.371 L 682.07 396.249 C 682.07 397.353 681.174 398.25 680.07 398.25 L 669.07 398.25 C 667.966 398.25 667.07 397.353 667.07 396.249 L 667.07 392.371 C 667.07 391.267 667.966 390.37 669.07 390.37 Z" style="stroke:none;fill:#4C5C68;stroke-miterlimit:10;"/><path d="M 669.07 375 L 695.07 375 C 696.174 375 697.07 375.896 697.07 376.999 L 697.07 380.871 C 697.07 381.974 696.174 382.87 695.07 382.87 L 669.07 382.87 C 667.966 382.87 667.07 381.974 667.07 380.871 L 667.07 376.999 C 667.07 375.896 667.966 375 669.07 375 Z" style="stroke:none;fill:#DB2763;stroke-miterlimit:10;"/><path d="M 669.07 360.37 L 695.07 360.37 C 696.174 360.37 697.07 361.267 697.07 362.371 L 697.07 366.249 C 697.07 367.353 696.174 368.25 695.07 368.25 L 669.07 368.25 C 667.966 368.25 667.07 367.353 667.07 366.249 L 667.07 362.371 C 667.07 361.267 667.966 360.37 669.07 360.37 Z" style="stroke:none;fill:#4C5C68;stroke-miterlimit:10;"/><path d="M 669.07 345 L 687.57 345 C 688.674 345 689.57 345.896 689.57 346.999 L 689.57 350.871 C 689.57 351.974 688.674 352.87 687.57 352.87 L 669.07 352.87 C 667.966 352.87 667.07 351.974 667.07 350.871 L 667.07 346.999 C 667.07 345.896 667.966 345 669.07 345 Z" style="stroke:none;fill:#FDE74C;stroke-miterlimit:10;"/></g><g opacity="0.5"><line x1="717.07" y1="320" x2="717.07" y2="410" vector-effect="non-scaling-stroke" stroke-width="3" stroke="rgb(255,255,255)" stroke-linejoin="miter" stroke-linecap="square" stroke-miterlimit="1"/></g><g><path d="M 737.86 330.38 L 748.86 330.38 C 749.964 330.38 750.86 331.276 750.86 332.379 L 750.86 336.251 C 750.86 337.354 749.964 338.25 748.86 338.25 L 737.86 338.25 C 736.756 338.25 735.86 337.354 735.86 336.251 L 735.86 332.379 C 735.86 331.276 736.756 330.38 737.86 330.38 Z" style="stroke:none;fill:#4C5C68;stroke-miterlimit:10;"/><path d="M 737.86 390.75 L 748.86 390.75 C 749.964 390.75 750.86 391.646 750.86 392.749 L 750.86 396.621 C 750.86 397.724 749.964 398.62 748.86 398.62 L 737.86 398.62 C 736.756 398.62 735.86 397.724 735.86 396.621 L 735.86 392.749 C 735.86 391.646 736.756 390.75 737.86 390.75 Z" style="stroke:none;fill:#4C5C68;stroke-miterlimit:10;"/><path d="M 737.86 375.38 L 763.86 375.38 C 764.964 375.38 765.86 376.276 765.86 377.379 L 765.86 381.251 C 765.86 382.354 764.964 383.25 763.86 383.25 L 737.86 383.25 C 736.756 383.25 735.86 382.354 735.86 381.251 L 735.86 377.379 C 735.86 376.276 736.756 375.38 737.86 375.38 Z" style="stroke:none;fill:#009688;stroke-miterlimit:10;mix-blend-mode:multiply;"/><path d="M 737.86 360.75 L 763.86 360.75 C 764.964 360.75 765.86 361.646 765.86 362.749 L 765.86 366.621 C 765.86 367.724 764.964 368.62 763.86 368.62 L 737.86 368.62 C 736.756 368.62 735.86 367.724 735.86 366.621 L 735.86 362.749 C 735.86 361.646 736.756 360.75 737.86 360.75 Z" style="stroke:none;fill:#4C5C68;stroke-miterlimit:10;"/><path d="M 737.86 345.38 L 756.36 345.38 C 757.464 345.38 758.36 346.276 758.36 347.379 L 758.36 351.251 C 758.36 352.354 757.464 353.25 756.36 353.25 L 737.86 353.25 C 736.756 353.25 735.86 352.354 735.86 351.251 L 735.86 347.379 C 735.86 346.276 736.756 345.38 737.86 345.38 Z" style="stroke:none;fill:#009688;stroke-miterlimit:10;mix-blend-mode:multiply;"/></g></g><g style="mix-blend-mode:normal;" opacity="0.8"><g clip-path="url(#_clipPath_nE1YDsEqtfwc6GjsXzp6JSziZn7dZEpg)"><text transform="matrix(1,0,0,1,695.601,299.311)" style="font-family:'Open Sans';font-weight:300;font-size:24px;font-style:normal;font-variant-ligatures:none;letter-spacing:6;fill:#ffffff;stroke:none;">WL</text></g><defs><clipPath id="_clipPath_nE1YDsEqtfwc6GjsXzp6JSziZn7dZEpg"><rect x="0" y="0" width="70" height="40" transform="matrix(1,0,0,1,681.464,270)"/></clipPath></defs></g></g></g></svg>